<svg width="337" height="399" viewBox="0 0 337 399" fill="none" xmlns="http://www.w3.org/2000/svg">
<path d="M20.8418 380.806H35.0962V380.495H20.8418V380.806Z" fill="#E5E6E5"/>
<path d="M44.644 279.526H46.1259C46.1102 276.555 46.1323 269.02 46.2807 251.752C46.5479 220.454 47.0585 218.546 47.0585 218.546L43.528 232.994C41.2905 248.995 44.1759 265.072 44.6431 279.526H44.644Z" fill="#E0E1E0"/>
<path d="M41.7106 230.844C36.6292 224.954 25.7744 223.24 14.6597 221.776C10.2962 221.199 26.1264 230.897 33.8637 237.785C39.8758 243.135 43.7177 244.614 45.3691 249.947C46.228 243.298 46.0879 235.92 41.7106 230.844Z" fill="#E0E1E0"/>
<path d="M38.329 212.027C38.4534 214.377 36.5947 216.282 34.1784 216.282C31.7603 216.282 29.7006 214.377 29.5762 212.027C29.4518 209.675 31.3106 207.77 33.7268 207.77C36.145 207.77 38.2055 209.675 38.329 212.027Z" fill="#2C3C43"/>
<path d="M40.5585 254.145C40.6829 256.497 38.8242 258.402 36.406 258.402C33.9898 258.402 31.9292 256.497 31.8048 254.145C31.6795 251.795 33.5391 249.89 35.9554 249.89C38.3735 249.89 40.4322 251.795 40.5576 254.145H40.5585Z" fill="#2C3C43"/>
<path d="M19.1112 129.871C28.4493 108.771 49.2424 94.8235 75.7032 91.2385C101.712 87.7047 120.806 111.98 149.708 123.171C173.164 132.261 195.989 130.571 219.368 138.825C241.672 146.704 263.327 161.923 278.265 181.316C297.743 206.582 300.953 231.848 297.795 255.697C295.84 270.455 292.673 284.342 284.88 295.908C267.578 321.516 232.675 328.404 193.957 310.795C179.208 304.06 165.021 295.012 151.04 285.862C116.274 263.071 81.9599 239.41 47.4584 216.133C41.2359 211.934 34.8938 207.598 29.7809 202.186C21.4842 193.317 17.3529 182.375 15.3214 172.2C12.1973 156.204 13.802 141.864 19.1112 129.871Z" fill="#318CDD"/>
<path opacity="0.9" d="M19.1112 129.871C28.4493 108.771 49.2424 94.8235 75.7032 91.2385C101.712 87.7047 120.806 111.98 149.708 123.171C173.164 132.261 195.989 130.571 219.368 138.825C241.672 146.704 263.327 161.923 278.265 181.316C297.743 206.582 300.953 231.848 297.795 255.697C295.84 270.455 292.673 284.342 284.88 295.908C267.578 321.516 232.675 328.404 193.957 310.795C179.208 304.06 165.021 295.012 151.04 285.862C116.274 263.071 81.9599 239.41 47.4584 216.133C41.2359 211.934 34.8938 207.598 29.7809 202.186C21.4842 193.317 17.3529 182.375 15.3214 172.2C12.1973 156.204 13.802 141.864 19.1112 129.871Z" fill="white"/>
<path d="M171.431 398.312C262.834 398.312 336.931 393.986 336.931 388.649C336.931 383.313 262.834 378.987 171.431 378.987C80.0283 378.987 5.93164 383.313 5.93164 388.649C5.93164 393.986 80.0283 398.312 171.431 398.312Z" fill="#F5F5F5"/>
<path d="M74.4496 221.369C79.5291 215.48 90.3858 213.766 101.5 212.3C105.864 211.725 90.0337 221.423 82.2955 228.31C76.2853 233.66 72.4415 235.139 70.792 240.471C69.9322 233.822 70.0713 226.444 74.4505 221.369H74.4496Z" fill="#E0E1E0"/>
<path d="M72.2818 197.162C76.0905 190.123 85.6773 183.495 96.4335 180.981C100.657 179.994 86.6514 193.98 81.3285 202.997C77.1927 210.003 71.7086 218.232 70.8562 224.143C69.5697 212.431 68.473 204.2 72.2818 197.161V197.162Z" fill="#E0E1E0"/>
<path d="M71.8292 262.908C67.2906 262.908 63.5408 260.696 63.2791 257.865L62.5234 253.028H81.1358L80.3792 257.865C80.1184 260.696 76.3677 262.908 71.8292 262.908Z" fill="#EAEAE9"/>
<path d="M82.3475 254.882H61.3263L60.7227 249.495H82.9484L82.3475 254.882Z" fill="#EAEAE9"/>
<path d="M179.978 307.21H23.814C18.6534 307.21 14.2558 303.142 13.9895 298.123L0.0124946 34.3699C-0.251987 29.351 3.71433 25.283 8.87312 25.283H165.038C170.197 25.283 174.595 29.351 174.862 34.3699L188.839 298.123C189.105 303.142 185.137 307.21 179.978 307.21Z" fill="#D4E0EA"/>
<path d="M8.86673 31.656C7.99956 31.656 7.46138 32.0216 7.16188 32.3272C6.86146 32.6355 6.51127 33.1823 6.55642 34.0355L20.5343 297.791C20.6191 299.407 22.148 300.825 23.8067 300.825H179.971C180.839 300.825 181.376 300.461 181.675 300.155C181.977 299.847 182.326 299.301 182.281 298.447L168.304 34.6924C168.219 33.0756 166.689 31.6569 165.032 31.6569H8.86673V31.656ZM179.971 301.135H23.8067C21.9867 301.135 20.3076 299.579 20.2146 297.806L6.23665 34.0498C6.18689 33.0873 6.58592 32.4653 6.93057 32.1139C7.27246 31.7626 7.88621 31.345 8.86765 31.345H165.033C166.852 31.345 168.531 32.9008 168.625 34.6763L182.602 298.431C182.652 299.394 182.253 300.016 181.908 300.369C181.566 300.719 180.953 301.137 179.971 301.137V301.135Z" fill="#FEFEFE"/>
<path d="M93.0625 140.54C66.9534 140.54 44.6973 119.956 43.351 94.5634C42.0055 69.1714 62.0813 48.5867 88.1903 48.5867C114.299 48.5867 136.556 69.1714 137.901 94.5634C139.247 119.956 119.172 140.54 93.0625 140.54Z" fill="#318CDD"/>
<path d="M128.88 94.5681C129.22 100.992 127.863 107.024 125.197 112.288C119.359 123.881 107.144 131.767 92.6035 131.767C78.0625 131.767 65.0107 123.881 57.9453 112.288C54.7199 107.025 52.7247 100.992 52.3838 94.5681C51.2945 74.0211 67.5348 57.3708 88.6602 57.3708C109.787 57.3708 127.792 74.0211 128.88 94.5681Z" fill="#FEFEFE"/>
<path d="M125.187 112.278C119.349 123.872 107.134 131.758 92.5937 131.758C78.0528 131.758 65.001 123.872 57.9355 112.278C67.233 106.021 78.5946 102.369 91.0364 102.369C103.477 102.369 115.227 106.021 125.187 112.278Z" fill="#318CDD"/>
<path d="M106.993 81.8407C107.478 90.9912 100.244 98.4103 90.8342 98.4103C81.4244 98.4103 73.4033 90.9912 72.9195 81.8407C72.4348 72.6892 79.6688 65.2703 89.0787 65.2703C98.4885 65.2703 106.51 72.6892 106.994 81.8407H106.993Z" fill="#318CDD"/>
<path d="M157.601 204.609H35.3259C33.1419 204.609 31.2813 202.887 31.1688 200.763L30.2436 183.289C30.1312 181.166 31.8084 179.444 33.9924 179.444H156.268C158.452 179.444 160.313 181.166 160.425 183.289L161.352 200.763C161.464 202.887 159.785 204.609 157.601 204.609Z" fill="#FEFEFE"/>
<path d="M120.154 169.849H69.0872C66.9041 169.849 65.0426 168.127 64.9302 166.004L64.7339 162.293C64.6214 160.169 66.2995 158.449 68.4827 158.449H119.552C121.735 158.449 123.596 160.169 123.709 162.293L123.905 166.004C124.017 168.127 122.338 169.849 120.154 169.849Z" fill="#318CDD"/>
<path d="M139.131 288.366H62.6423C58.9239 288.366 55.7547 285.436 55.563 281.819L55.1087 273.241C54.917 269.624 57.7757 266.693 61.4941 266.693H137.984C141.702 266.693 144.871 269.624 145.063 273.241L145.517 281.819C145.71 285.436 142.85 288.366 139.132 288.366H139.131Z" fill="#318CDD"/>
<path d="M159.832 246.728H37.5563C35.3732 246.728 33.5116 245.007 33.3992 242.884L32.4721 225.41C32.3597 223.286 34.0388 221.564 36.2219 221.564H158.497C160.68 221.564 162.542 223.286 162.654 225.41L163.58 242.884C163.692 245.007 162.014 246.728 159.831 246.728H159.832Z" fill="#FEFEFE"/>
<path d="M77.7626 192.027C77.887 194.377 76.0282 196.282 73.612 196.282C71.1938 196.282 69.1351 194.377 69.0098 192.027C68.8854 189.675 70.7441 187.77 73.1623 187.77C75.5785 187.77 77.6391 189.675 77.7635 192.027H77.7626Z" fill="#2C3C43"/>
<path d="M91.2149 192.027C91.3402 194.377 89.4815 196.282 87.0643 196.282C84.648 196.282 82.5874 194.377 82.463 192.027C82.3377 189.675 84.1955 187.77 86.6136 187.77C89.0299 187.77 91.0914 189.675 91.2149 192.027Z" fill="#2C3C43"/>
<path d="M79.9891 234.145C80.1135 236.497 78.2548 238.402 75.8385 238.402C73.4204 238.402 71.3608 236.497 71.2364 234.145C71.112 231.795 72.9707 229.89 75.387 229.89C77.8051 229.89 79.8657 231.795 79.9891 234.145Z" fill="#2C3C43"/>
<path d="M93.4442 234.145C93.5686 236.497 91.7099 238.402 89.2936 238.402C86.8755 238.402 84.8159 236.497 84.6914 234.145C84.567 231.795 86.4258 229.89 88.842 229.89C91.2602 229.89 93.3207 231.795 93.4442 234.145Z" fill="#2C3C43"/>
<path d="M106.897 234.145C107.023 236.497 105.164 238.402 102.747 238.402C100.33 238.402 98.2699 236.497 98.1446 234.145C98.0202 231.795 99.8789 229.89 102.297 229.89C104.713 229.89 106.774 231.795 106.898 234.145H106.897Z" fill="#2C3C43"/>
<path d="M120.351 234.145C120.476 236.497 118.617 238.402 116.199 238.402C113.783 238.402 111.722 236.497 111.598 234.145C111.472 231.795 113.331 229.89 115.748 229.89C118.165 229.89 120.225 231.795 120.351 234.145H120.351Z" fill="#2C3C43"/>
<path d="M265.898 89.6031C266.219 90.0647 266.382 90.3183 266.593 90.6508L267.166 91.582C267.537 92.1977 267.862 92.8134 268.189 93.4273C268.829 94.6588 269.434 95.8911 269.976 97.1359C271.074 99.6257 271.973 102.167 272.751 104.726C274.328 109.842 275.292 115.085 275.786 120.33L275.885 121.313C275.904 121.454 275.916 121.675 275.926 121.906L275.954 122.576C275.971 123.461 275.926 124.336 275.799 125.164C275.559 126.833 275.096 128.374 274.53 129.799C273.38 132.638 271.798 135.048 270.103 137.243C266.631 141.613 262.691 145.111 258.188 148.212L254.662 144.196C257.826 140.637 260.891 136.694 263.161 132.757C264.32 130.794 265.205 128.769 265.756 126.881C266.015 125.937 266.154 125.03 266.176 124.212C266.205 123.799 266.175 123.417 266.133 123.055L266.094 122.79C266.085 122.709 266.074 122.618 266.041 122.45L265.881 121.574C265.044 116.902 263.901 112.311 262.402 107.877C261.666 105.655 260.756 103.505 259.833 101.395C259.376 100.336 258.871 99.3084 258.353 98.3064L257.559 96.8438L257.165 96.1501L256.84 95.6061L265.897 89.6013L265.898 89.6031Z" fill="#B55B52"/>
<path d="M253.963 148.29L258.597 157.806L262.273 149.758C262.273 149.758 259.016 142.787 254.608 143.426L253.963 148.289V148.29Z" fill="#B55B52"/>
<path d="M261.919 158.271L265.599 152.403L262.274 149.751L258.598 157.8L261.919 158.271Z" fill="#B55B52"/>
<path d="M243.194 377.149C241.327 377.513 239.924 377.45 239.382 376.968C239.15 376.764 239.066 376.476 239.121 376.09C239.152 375.881 239.25 375.812 239.332 375.776C239.991 375.482 241.868 376.369 243.195 377.149H243.194ZM241.081 377.876C242.072 377.876 243.155 377.677 243.912 377.502L244.104 377.304L243.992 377.055C243.627 376.82 240.369 374.776 239.122 375.326C238.925 375.413 238.677 375.603 238.617 376.02C238.538 376.573 238.679 377.015 239.038 377.333C239.495 377.737 240.257 377.876 241.081 377.876Z" fill="#3F79BC"/>
<path d="M242.014 373.286C242.223 373.286 242.407 373.357 242.576 373.502C243.271 374.101 243.51 375.786 243.569 376.785C242.549 375.994 241.333 374.304 241.48 373.587C241.504 373.47 241.573 373.331 241.898 373.292L242.014 373.286H242.014ZM243.838 377.511L243.966 377.478L244.093 377.266C244.093 377.138 244.077 374.136 242.912 373.133C242.602 372.866 242.239 372.753 241.837 372.804C241.201 372.878 241.028 373.267 240.981 373.492C240.74 374.667 242.689 376.916 243.713 377.48L243.837 377.512L243.838 377.511Z" fill="#3F79BC"/>
<path d="M223.032 373.585C223.602 372.984 226.135 372.823 228.037 372.852C226.042 374.165 224.397 374.793 223.562 374.54C223.269 374.452 223.071 374.255 222.956 373.941C222.911 373.818 222.923 373.723 222.993 373.629L223.032 373.585ZM228.991 372.796L229.049 372.558L228.817 372.382C228.286 372.357 223.686 372.171 222.649 373.26L222.587 373.334C222.414 373.56 222.376 373.827 222.478 374.105C222.648 374.57 222.962 374.876 223.411 375.011C224.902 375.461 227.524 373.836 228.954 372.827L228.991 372.795V372.796Z" fill="#3F79BC"/>
<path d="M224.383 370.305L224.627 370.125C224.961 369.934 225.311 369.891 225.698 369.991C226.811 370.283 227.858 371.667 228.321 372.359C226.809 372.191 224.489 371.281 224.294 370.589C224.281 370.548 224.254 370.445 224.384 370.305H224.383ZM228.979 372.801L229.012 372.757L229.013 372.512C228.953 372.409 227.523 369.959 225.828 369.515C225.311 369.379 224.818 369.441 224.368 369.699C223.759 370.047 223.725 370.447 223.801 370.72C224.129 371.873 227.391 372.89 228.794 372.881L228.978 372.801H228.979Z" fill="#3F79BC"/>
<path d="M243.087 53.1372C241.84 59.3248 239.039 72.8212 243.49 76.9501C243.49 76.9501 241.751 83.2265 229.929 83.2265C216.932 83.2265 223.718 76.951 223.718 76.951C230.812 75.3029 230.63 70.1845 229.393 65.3771L243.087 53.1372Z" fill="#B55B52"/>
<path d="M221.424 38.5416L221.651 38.4888C221.901 38.3669 222.003 38.0702 221.878 37.8255C220.62 35.3833 218.292 35.0992 218.194 35.0893C217.916 35.0562 217.665 35.2525 217.632 35.524C217.6 35.7947 217.8 36.0385 218.077 36.0707C218.153 36.0797 219.966 36.3199 220.969 38.2692C221.059 38.4421 221.238 38.5416 221.424 38.5416Z" fill="#2C3C43"/>
<path d="M217.542 43.9487C217.542 43.9487 215.629 47.3669 213.805 48.9075C214.806 50.0708 216.793 49.8333 216.793 49.8333L217.541 43.9478L217.542 43.9487Z" fill="#742C2D"/>
<path d="M218.488 42.6096C218.382 43.4449 217.84 44.066 217.28 43.9988C216.718 43.9315 216.35 43.2002 216.456 42.3658C216.562 41.5305 217.103 40.9094 217.664 40.9767C218.224 41.0439 218.593 41.7761 218.488 42.6096Z" fill="#2C3C43"/>
<path d="M217.908 41.0527L215.92 40.2273C215.92 40.2273 216.779 41.9203 217.908 41.0527Z" fill="#2C3C43"/>
<path d="M240.285 370.438L229.845 372.809L223.5 349.454L233.94 347.083L240.285 370.438Z" fill="#8E494A"/>
<path d="M256.314 377.267H245.594L246.434 353.121H257.155L256.314 377.267Z" fill="#8E494A"/>
<path d="M244.735 376.053H256.781C257.218 376.053 257.574 376.349 257.636 376.765L259.008 386.033C259.152 386.994 258.3 387.905 257.29 387.887C253.091 387.816 251.067 387.577 245.769 387.577C242.511 387.577 237.751 387.905 233.25 387.905C228.849 387.905 228.511 383.578 230.384 383.186C238.786 381.429 240.113 379.005 242.943 376.694C243.453 376.277 244.093 376.053 244.734 376.053H244.735Z" fill="#2C3C43"/>
<path d="M228.926 371.247L239.868 366.353C240.266 366.175 240.717 366.298 240.952 366.651L246.18 374.513C246.723 375.328 246.342 376.502 245.416 376.897C241.572 378.539 239.63 379.144 234.817 381.296C231.856 382.621 225.875 385.659 221.787 387.488C217.789 389.276 215.62 385.483 217.156 384.367C224.033 379.356 225.996 375.809 227.573 372.559C227.858 371.973 228.343 371.508 228.926 371.247Z" fill="#2C3C43"/>
<path d="M237.206 359.123L235.447 352.642L235.452 352.64L237.212 359.122L237.206 359.123Z" fill="#C2C4C4"/>
<path d="M226.908 361.965L225.344 356.205L235.46 352.641L237.219 359.121L226.908 361.965Z" fill="#743D3E"/>
<path d="M256.738 365.575H256.73L256.814 363.165H256.821L256.738 365.575Z" fill="#C2C4C4"/>
<path d="M256.718 365.575H246L246.083 363.165H256.802L256.718 365.575Z" fill="#743D3E"/>
<path d="M261.971 79.3112C266.424 80.2612 271.181 95.8431 271.181 95.8431L258.588 108.866C258.588 108.866 248.14 94.2317 250.268 88.8489C252.486 83.2448 256.706 78.19 261.97 79.3112H261.971Z" fill="#263238"/>
<path d="M257.593 107.421C257.254 106.91 256.844 106.284 256.393 105.571C256.393 105.567 256.394 105.565 256.395 105.563C256.846 106.276 257.255 106.901 257.596 107.413C257.596 107.416 257.594 107.419 257.593 107.422V107.421Z" fill="#8D9193"/>
<path d="M257.593 107.412C257.253 106.9 256.843 106.275 256.393 105.562C256.912 102.56 257.535 99.3042 258.278 95.7283C259.075 99.9585 258.302 104.648 257.593 107.412Z" fill="#252C31"/>
<path d="M205.585 79.6134C205.585 79.6134 200.478 81.3637 210.709 142.542C227.986 142.542 245.843 142.542 254.25 142.542C253.519 125.309 253.499 114.681 261.969 79.3104C261.969 79.3104 252.846 77.3809 243.479 76.9417C236.151 76.5984 230.149 76.3699 223.706 76.9426C215.214 77.6954 205.584 79.6125 205.584 79.6125L205.585 79.6134Z" fill="#263238"/>
<path d="M206.211 112.203C205.792 108.87 205.465 105.884 205.209 103.201C205.473 105.886 205.802 108.873 206.211 112.203Z" fill="#919697"/>
<path d="M206.348 113.202C206.306 112.866 206.263 112.533 206.221 112.204C205.812 108.875 205.483 105.888 205.219 103.203C205.216 103.167 205.213 103.131 205.209 103.094C206.963 100.604 209.267 97.8162 211.762 96.0129C212.829 101.196 209.913 110.078 206.348 113.202Z" fill="#252C31"/>
<path d="M209.838 93.8207C207.469 99.6399 204.861 105.171 201.925 110.693C198.993 116.209 195.865 121.628 191.705 126.868L190.885 127.849L190.477 128.336C190.336 128.502 190.227 128.647 190 128.873C189.209 129.722 188.351 130.45 187.472 131.06C185.71 132.283 183.887 133.061 182.121 133.659C178.583 134.817 175.164 135.228 171.83 135.422C165.14 135.686 158.81 135.083 152.428 133.747L153.138 128.512C156.08 128.527 159.165 128.462 162.14 128.281C165.129 128.129 168.089 127.818 170.928 127.325C173.76 126.863 176.5 126.162 178.785 125.195C179.913 124.703 180.893 124.114 181.614 123.518C181.977 123.221 182.262 122.917 182.489 122.627C182.538 122.585 182.651 122.421 182.75 122.288L183.049 121.877L183.648 121.059C186.801 116.521 189.569 111.251 192.214 105.981C194.811 100.688 197.317 95.1991 199.669 89.8423L209.839 93.8189L209.838 93.8207Z" fill="#B55B52"/>
<path d="M205.596 79.6198C200.268 80.8835 193.711 95.1112 193.711 95.1112L204.77 110.914C204.77 110.914 219.496 92.8858 217.746 87.3758C215.921 81.6381 212.062 78.0873 205.597 79.6198H205.596Z" fill="#263238"/>
<path d="M156.213 129.289L146.988 125.147L146.061 134.065C146.061 134.065 153.771 136.273 157.572 134.012L156.213 129.289Z" fill="#B55B52"/>
<path d="M141.452 124.25L140.572 131.04L146.051 134.07L146.978 125.15L141.452 124.25Z" fill="#B55B52"/>
<path d="M247.714 43.213C245.762 53.3853 245.159 57.732 239.166 62.353C230.153 69.3024 217.731 64.7477 216.52 54.2134C215.427 44.7303 218.801 29.688 229.638 26.8505C240.314 24.0551 249.665 33.0408 247.714 43.213Z" fill="#B55B52"/>
<path d="M224.74 45.3537C224.142 50.5402 223.911 64.0178 235.628 64.4408C249.987 64.9597 254.285 53.03 253.005 48.2584C260.472 42.346 261.552 32.1809 253.156 24.3998C244.761 16.6204 226.278 20.969 221.114 28.5484C214.714 37.9436 224.74 45.3528 224.74 45.3528V45.3537Z" fill="#2C3C43"/>
<path d="M239.109 27.4295C238.415 21.9589 238.954 18.1831 244.216 18.1831C249.478 18.1831 256.677 20.0428 259.317 25.2848C261.957 30.5278 262.17 38.722 254.81 37.8921C247.451 37.0631 239.94 33.9801 239.109 27.4295Z" fill="#3F79BC"/>
<path d="M247.266 26.1165C246.012 19.5893 251.989 1.22454 266.575 0.0307622C273.329 -0.522214 276.458 6.54817 272.92 7.71327C279.302 7.63709 283.416 15.8636 277.448 17.104C282.167 20.0356 280.992 26.0663 274.272 29.0221C269.318 31.2026 249.002 35.1452 247.266 26.1156V26.1165Z" fill="#2C3C43"/>
<path d="M262.863 33.1213C258.171 33.1222 253.264 32.4518 250.225 30.4711C248.379 29.2684 247.367 27.6758 247.216 25.7336C247.203 25.5615 247.335 25.4128 247.51 25.4002C247.697 25.3868 247.84 25.5158 247.854 25.6879C247.989 27.4284 248.907 28.8642 250.58 29.9549C256.372 33.7263 269.758 32.5056 273.953 31.1738C277.561 30.0302 280.005 27.8102 280.49 25.2371C280.845 23.3496 280.084 21.5625 278.347 20.202C278.209 20.0936 278.187 19.8973 278.297 19.7638C278.409 19.6311 278.611 19.6096 278.748 19.7163C280.649 21.2049 281.513 23.2582 281.12 25.3491C280.591 28.1499 277.987 30.5491 274.152 31.7662C271.956 32.4635 267.515 33.1222 262.864 33.1222L262.863 33.1213Z" fill="#2C3C43"/>
<path d="M221.475 43.9855C220.189 45.717 219.82 47.8689 220.103 49.6049C220.53 52.2157 223.147 52.3887 225.041 50.7154C226.748 49.2097 228.58 46.0352 227.183 43.8717C225.808 41.7378 222.944 42.0058 221.475 43.9846V43.9855Z" fill="#B55B52"/>
<path d="M222.22 142.542C222.22 142.542 228.442 214.105 234.897 254.437C240.111 287.012 244.222 363.157 244.222 363.157H258.843C258.843 363.157 264.042 289.288 261.394 257.068C254.698 175.538 269.634 168.898 254.262 142.542H222.219H222.22Z" fill="#318CDD"/>
<path d="M231.545 230.87C231.374 229.547 231.205 228.213 231.037 226.871V226.87C231.206 228.213 231.375 229.545 231.545 230.87Z" fill="#8D9193"/>
<path d="M232.681 239.423C232.299 236.634 231.918 233.775 231.545 230.867C231.374 229.543 231.206 228.211 231.037 226.867C235.32 214.723 239.07 204.864 242.039 195.876C241.252 213.266 237.187 228.36 232.682 239.422L232.681 239.423Z" fill="#1D5DA9"/>
<path d="M211.976 142.094C211.976 142.094 198.478 220.251 196.346 255.48C201.647 288.058 223.33 356.912 223.33 356.912L236.629 352.228C236.629 352.228 229.272 277.143 221.227 256.587C239.236 197.621 252.471 182.717 248.62 142.545C239.435 142.545 211.976 142.094 211.976 142.094Z" fill="#318CDD"/>
<path d="M221.538 360.358L239.508 355.612L238.491 348.646L219.25 353.707L221.538 360.358Z" fill="#2C3C43"/>
<path d="M242.214 363.439H260.836L261.814 357.085L242.107 356.437L242.214 363.439Z" fill="#2C3C43"/>
<path d="M254.897 140.06L256.861 143.85C257.013 144.144 256.655 144.443 256.152 144.443H210.488C210.096 144.443 209.771 144.257 209.746 144.016L209.353 140.226C209.326 139.964 209.665 139.741 210.096 139.741H254.189C254.512 139.741 254.8 139.871 254.897 140.061V140.06Z" fill="#3F79BC"/>
<path d="M231.342 144.444H210.487C210.094 144.444 209.769 144.258 209.744 144.017L209.351 140.227C209.35 140.216 209.35 140.206 209.35 140.196C209.35 139.947 209.681 139.741 210.093 139.741H228.633C229.281 141.504 230.167 143.093 231.341 144.444H231.342ZM256.743 144.264C256.79 144.199 256.838 144.133 256.885 144.068C256.864 144.139 256.814 144.207 256.743 144.264Z" fill="#305285"/>
<path d="M248.99 144.86H250.171C250.407 144.86 250.586 144.742 250.57 144.598L250.016 139.674C250 139.53 249.795 139.413 249.559 139.413H248.378C248.142 139.413 247.963 139.53 247.98 139.674L248.534 144.598C248.55 144.742 248.756 144.86 248.991 144.86H248.99Z" fill="#3F79BC"/>
<path d="M220.352 144.86H221.533C221.767 144.86 221.947 144.742 221.931 144.598L221.377 139.674C221.361 139.53 221.155 139.413 220.92 139.413H219.739C219.505 139.413 219.326 139.53 219.341 139.674L219.895 144.598C219.912 144.742 220.117 144.86 220.353 144.86H220.352Z" fill="#3F79BC"/>
<path d="M252.998 102C252.716 101.725 252.375 101.388 252 101.004C252.001 101.002 252.001 101.001 252.002 101C252.377 101.384 252.717 101.72 253 101.995C253 101.997 252.998 101.999 252.998 102V102Z" fill="#8D9193"/>
<path d="M245.781 133H246.691C246.873 133 247.011 132.913 246.999 132.807L246.572 129.191C246.559 129.086 246.401 129 246.219 129H245.308C245.126 129 244.988 129.086 245.001 129.191L245.429 132.807C245.441 132.913 245.599 133 245.781 133H245.781Z" fill="#3F79BC"/>
<path d="M233.346 103C233.12 103 232.921 102.845 232.862 102.621C229.592 90.2602 222.794 80.0929 219.552 78.5246C219.189 78.3496 218.888 78.2987 218.708 78.3821C218.453 78.4988 218.157 78.3821 218.044 78.1244C217.931 77.8675 218.043 77.5625 218.296 77.4466C218.763 77.2302 219.329 77.2827 219.981 77.5972C223.441 79.2711 230.297 89.321 233.728 101.971C236.186 101.94 239.977 101.626 240.893 101.547C242.039 100.155 250.443 89.4059 247.299 77.6481C247.226 77.3757 247.383 77.0922 247.65 77.0183C247.915 76.9438 248.192 77.1032 248.266 77.3772C251.766 90.4647 241.615 102.265 241.511 102.382C241.426 102.479 241.309 102.539 241.182 102.55C241.131 102.556 236.133 102.999 233.345 102.999L233.346 103Z" fill="#C6AE2F"/>
<path d="M250.118 110.843C244.69 100.41 242.47 99.6813 241.499 96.3268C241.499 96.3268 242.374 93.7949 244.595 91.2307C243.929 91.041 242.52 90.7522 241.635 90.5772C241.735 90.1199 241.838 89.6685 241.939 89.2355C241.206 89.0275 239.683 89.2429 238.904 89.3767L238.87 88.346C238.87 88.346 236.117 87.7806 235.011 88.0953C235.121 88.5702 235.233 89.0642 235.344 89.5656C234.374 89.7575 232.828 90.0736 232.099 90.2824C234.213 92.7238 234.976 95.3307 235.14 95.9739C232.218 101.125 220.841 134.273 239.338 136.765C257.847 139.26 255.546 121.277 250.119 110.843H250.118Z" fill="#3F79BC"/>
<path d="M242.626 137C241.612 137 240.517 136.924 239.339 136.765C231.454 135.703 228.997 129.07 229 121.41C229.004 111.1 233.463 98.9295 235.14 95.9734C234.976 95.3302 234.213 92.7233 232.1 90.2819C232.829 90.0739 234.375 89.757 235.345 89.5651C235.233 89.0638 235.122 88.5697 235.011 88.0948C235.252 88.0265 235.57 88 235.923 88C237.185 88 238.87 88.3455 238.87 88.3455L238.905 89.3762C239.45 89.2821 240.361 89.1483 241.109 89.1483C241.429 89.1483 241.719 89.1726 241.94 89.2351C241.839 89.6681 241.737 90.1195 241.636 90.5767C242.52 90.751 243.929 91.0398 244.595 91.2302C242.375 93.7945 241.5 96.3263 241.5 96.3263C242.471 99.6801 244.691 100.409 250.119 110.843C252.317 115.07 254.003 120.534 254 125.375C253.997 131.724 251.09 137 242.626 137Z" fill="#F5D83E"/>
<path d="M234.146 94.2669C234.008 94.5475 234.021 95.613 234 96.038C233.979 96.4631 234.982 96.7462 236.11 96.8645C237.237 96.982 241.896 97.1941 241.749 96.605C241.603 96.0144 241.979 95.2116 242 94.7164C242.021 94.2204 240.141 94.1975 238.574 94.2677C237.008 94.3387 234.459 93.6313 234.145 94.2677L234.146 94.2669Z" fill="#C6AE2F"/>
</svg>
